<svg width="28" height="28" viewBox="0 0 28 28" fill="none" xmlns="http://www.w3.org/2000/svg">
<path d="M2.31847 20.1237C1.10297 15.2617 0.495218 12.8322 1.77163 11.1973C3.04663 9.5625 5.55414 9.5625 10.5649 9.5625H17.124C22.1362 9.5625 24.6409 9.5625 25.9173 11.1973C27.1937 12.8308 26.586 15.2632 25.3705 20.1237C24.597 23.2163 24.2116 24.7619 23.0585 25.6629C21.9053 26.5625 20.3115 26.5625 17.124 26.5625H10.5649C7.37739 26.5625 5.78363 26.5625 4.63047 25.6629C3.4773 24.7619 3.09055 23.2163 2.31847 20.1237Z" stroke="#8C8C8C" stroke-width="2.125"/>
<path d="M24.469 10.2708L23.4632 6.58041C23.075 5.15666 22.8809 4.44549 22.4828 3.90857C22.0859 3.37515 21.5469 2.96423 20.9273 2.72282C20.304 2.47916 19.5673 2.47916 18.094 2.47916M3.21899 10.2708L4.22483 6.58041C4.61299 5.15666 4.80708 4.44549 5.20516 3.90857C5.60208 3.37515 6.14114 2.96423 6.76066 2.72282C7.38399 2.47916 8.12066 2.47916 9.59399 2.47916" stroke="#8C8C8C" stroke-width="2.125"/>
<path d="M9.59399 2.47917C9.59399 2.10344 9.74325 1.74311 10.0089 1.47743C10.2746 1.21176 10.6349 1.0625 11.0107 1.0625H16.6773C17.0531 1.0625 17.4134 1.21176 17.6791 1.47743C17.9447 1.74311 18.094 2.10344 18.094 2.47917C18.094 2.85489 17.9447 3.21522 17.6791 3.4809C17.4134 3.74658 17.0531 3.89583 16.6773 3.89583H11.0107C10.6349 3.89583 10.2746 3.74658 10.0089 3.4809C9.74325 3.21522 9.59399 2.85489 9.59399 2.47917Z" stroke="#8C8C8C" stroke-width="2.125"/>
</svg>
